<svg width="210" height="25" viewBox="0 0 210 25" fill="none" xmlns="http://www.w3.org/2000/svg">
<g clip-path="url(#clip0_20_105)">
<path d="M135.494 3.55469H137.597V3.62722C137.815 3.66349 138.032 3.69976 138.25 3.69976C138.685 3.84482 139.193 4.09869 139.592 4.28003V4.35256H133.136V4.28003H133.318C133.535 4.06243 133.753 4.06243 134.079 3.95362V3.88109H134.406V3.80856H134.732V3.73602C135.058 3.62722 135.312 3.77229 135.494 3.55469Z" fill="#488BBC"/>
<path d="M158.415 3.55494V4.38908H155.731C155.404 4.38908 154.897 4.46162 154.715 4.31655H154.897C155.368 3.51867 157.073 3.55494 158.415 3.55494Z" fill="#488BBC"/>
<path d="M164.217 3.55322C166.03 3.51695 167.662 3.55322 168.932 4.06095H169.186V4.13349H169.44V4.20602C169.621 4.24229 169.766 4.27856 169.947 4.27856V4.35109H163.492C163.02 4.35109 161.461 4.45989 161.243 4.27856C161.715 4.24229 162.114 3.98842 162.513 3.84335C162.73 3.80709 162.948 3.77082 163.202 3.77082V3.69828C163.419 3.62575 163.999 3.73455 164.217 3.55322Z" fill="#488BBC"/>
<path d="M202.37 3.55488C203.458 3.51861 204.365 3.55488 205.127 3.80875H205.453V3.88128C205.634 3.95382 205.779 3.99008 205.961 4.06262V4.13515H206.142V4.20769C206.215 4.24395 206.323 4.28022 206.396 4.28022V4.35276H199.94V4.28022H200.122C200.303 4.06262 200.303 4.20769 200.557 4.09889V4.02635H200.811V3.95382H201.065V3.88128H201.319V3.80875H201.572V3.73622C201.79 3.62741 202.189 3.73622 202.37 3.55488Z" fill="#488BBC"/>
<path d="M141.731 3.91602H146.591V4.42375H141.731V3.91602Z" fill="#488BBC"/>
<path d="M148.079 3.91602H152.938V4.42375H148.079V3.91602Z" fill="#488BBC"/>
<path d="M174.698 3.91602H179.993V4.42375H174.698V3.91602Z" fill="#488BBC"/>
<path d="M185.579 3.91602H190.874V4.42375H185.579V3.91602Z" fill="#488BBC"/>
<path d="M192.904 3.91602H197.764V4.42375H192.904V3.91602Z" fill="#488BBC"/>
<path d="M141.732 5.51271H146.591V6.60072H130.997V6.52818C131.105 6.41938 131.033 6.52818 131.069 6.34685C131.142 6.27432 131.25 6.23805 131.323 6.16551V5.98418C131.432 5.91164 131.541 5.80284 131.649 5.73031C131.686 5.65778 131.722 5.54897 131.722 5.47644H140.934C141.115 5.87538 141.478 6.05671 141.587 6.49192H141.659C141.732 6.20178 141.732 5.83911 141.732 5.51271Z" fill="#488BBC"/>
<path d="M148.079 5.51172H152.938V6.45466H153.011V6.27333C153.229 6.05572 153.229 5.80186 153.519 5.58425V5.51172H158.306C158.27 5.87439 158.233 6.23706 158.233 6.59973H148.079V5.51172Z" fill="#488BBC"/>
<path d="M159.321 5.51172H171.724C171.978 5.94692 172.486 6.09199 172.74 6.59973H158.306V6.5272C158.414 6.4184 158.342 6.5272 158.378 6.34586C158.56 6.20079 158.705 6.05572 158.886 5.91066V5.83812H159.067C159.176 5.72932 159.249 5.62052 159.321 5.51172Z" fill="#488BBC"/>
<path d="M174.698 5.51172H179.993V6.59973H174.698V5.51172Z" fill="#488BBC"/>
<path d="M185.579 5.51172H190.874V6.59973H185.579V5.51172Z" fill="#488BBC"/>
<path d="M192.904 5.51172H197.764V6.59973H192.904V5.51172Z" fill="#488BBC"/>
<path d="M197.837 6.60072C197.909 6.16551 198.163 5.91165 198.417 5.65778C198.453 5.58524 198.49 5.54897 198.49 5.47644H207.883C208.028 5.65778 208.173 5.80284 208.318 5.98418H208.391V6.16551H208.463V6.34685H208.536C208.572 6.41938 208.608 6.52819 208.608 6.60072H197.837Z" fill="#488BBC"/>
<path d="M130.38 7.68945H137.162V7.76199H136.981C136.835 7.94332 136.799 7.83452 136.654 7.94332C136.582 8.01586 136.545 8.12466 136.473 8.19719H136.291C136.219 8.26973 136.183 8.37853 136.11 8.45106H136.038V8.6324C135.965 8.70493 135.856 8.7412 135.784 8.81373V8.88627H129.981C130.162 8.48733 130.271 8.08839 130.38 7.68945Z" fill="#488BBC"/>
<path d="M146.591 7.68945V8.88627H140.789V8.70493C140.607 8.5236 140.39 8.37853 140.208 8.19719V8.12466C139.991 7.97959 139.701 7.90706 139.556 7.68945C141.877 7.68945 144.234 7.68945 146.591 7.68945Z" fill="#488BBC"/>
<path d="M148.079 7.68945H163.601V7.76199H163.42C163.347 7.87079 163.166 8.16092 163.093 8.26973C163.021 8.34226 162.912 8.37853 162.839 8.45106C162.767 8.55986 162.767 8.81373 162.658 8.88627H157.037C157.109 8.5236 157.327 8.26973 157.472 7.94332H156.638V8.01586H156.057V8.08839C155.876 8.12466 155.658 8.16092 155.477 8.16092V8.23346C155.368 8.26973 155.259 8.30599 155.151 8.30599C155.114 8.37853 155.078 8.41479 155.078 8.48733H154.897C154.824 8.59613 154.715 8.70493 154.643 8.81373H148.115C148.079 8.48733 148.079 8.08839 148.079 7.68945Z" fill="#488BBC"/>
<path d="M174.01 8.88627H168.388C168.279 8.26973 167.808 8.08839 167.481 7.68945H173.538C173.719 8.08839 173.901 8.37853 174.01 8.88627Z" fill="#488BBC"/>
<path d="M174.698 7.68945H179.993V8.88627H174.698V7.68945Z" fill="#488BBC"/>
<path d="M185.579 7.68945H190.874V8.88627H185.579V7.68945Z" fill="#488BBC"/>
<path d="M192.904 7.68945H200.194V7.76199H200.013C199.868 7.90706 199.831 7.83452 199.686 7.94332V8.01586H199.505C199.287 8.30599 199.07 8.59613 198.816 8.85H192.868C192.904 8.48733 192.904 8.08839 192.904 7.68945Z" fill="#488BBC"/>
<path d="M209.333 7.68945C209.37 8.12466 209.515 8.5236 209.66 8.88627H203.784V8.70493C203.531 8.55986 203.422 8.30599 203.204 8.12466V8.05212C202.987 7.90706 202.733 7.94332 202.515 7.72572C204.8 7.68945 207.085 7.68945 209.333 7.68945Z" fill="#488BBC"/>
<path d="M129.8 9.97266H135.348C135.348 10.4441 135.203 10.6255 135.167 11.1695H129.727C129.763 10.7705 129.763 10.3716 129.8 9.97266Z" fill="#488BBC"/>
<path d="M141.369 9.97266H146.555V11.1695H141.514C141.478 10.7705 141.442 10.3716 141.369 9.97266Z" fill="#488BBC"/>
<path d="M148.079 9.97266H153.881V10.0452H153.809V10.2991H153.736V10.4804H153.664C153.627 10.698 153.591 10.9156 153.591 11.1695H148.151C148.079 10.7705 148.079 10.3716 148.079 9.97266Z" fill="#488BBC"/>
<path d="M156.819 9.97266H162.259C162.223 10.2991 162.15 10.8431 162.077 11.1695H156.71C156.746 10.698 156.782 10.3353 156.819 9.97266Z" fill="#488BBC"/>
<path d="M168.896 9.97266H174.263C174.336 10.3716 174.372 10.7705 174.444 11.1695H169.004C168.968 10.7705 168.932 10.3716 168.896 9.97266Z" fill="#488BBC"/>
<path d="M174.698 9.97266H179.993V11.1695H174.698V9.97266Z" fill="#488BBC"/>
<path d="M185.578 9.97266H190.873V11.1695H185.506C185.542 10.7705 185.578 10.3716 185.578 9.97266Z" fill="#488BBC"/>
<path d="M192.904 9.97266H198.344V10.0452C198.199 10.2265 198.127 10.8793 198.09 11.1332H192.904V9.97266Z" fill="#488BBC"/>
<path d="M204.401 9.97266H209.841C209.914 10.2991 209.914 10.7343 209.914 11.1695H204.546C204.51 10.7705 204.438 10.3716 204.401 9.97266Z" fill="#488BBC"/>
<path d="M129.727 12.2578H135.167C135.167 12.7293 135.348 13.092 135.494 13.4546H129.8C129.763 13.0557 129.763 12.6568 129.727 12.2578Z" fill="#488BBC"/>
<path d="M141.297 12.2578H146.592V13.4546H140.97C141.079 13.0557 141.188 12.6568 141.297 12.2578Z" fill="#488BBC"/>
<path d="M148.079 12.2578H153.374V13.4546H148.079V12.2578Z" fill="#488BBC"/>
<path d="M156.746 12.2578H162.186C162.259 12.6568 162.295 13.0557 162.367 13.4546H157C156.927 13.3458 157 13.4546 156.927 13.3821C156.855 12.9832 156.782 12.6205 156.746 12.2578Z" fill="#488BBC"/>
<path d="M168.968 12.2578H174.336C174.336 12.4754 174.191 13.2733 174.082 13.3458C173.864 13.5272 173.03 13.4184 172.667 13.4184H168.714C168.823 13.0557 168.896 12.6568 168.968 12.2578Z" fill="#488BBC"/>
<path d="M174.698 12.2578H180.066V12.3303H180.138C180.211 12.693 180.247 13.0557 180.32 13.4184H174.698C174.698 13.0557 174.698 12.6568 174.698 12.2578Z" fill="#488BBC"/>
<path d="M185.433 12.2578H190.874V13.4546H185.071C185.18 13.0557 185.361 12.7656 185.433 12.2578Z" fill="#488BBC"/>
<path d="M192.904 12.2578H198.199C198.308 12.6568 198.417 13.0557 198.526 13.4546H192.904V12.2578Z" fill="#488BBC"/>
<path d="M204.401 12.2578H209.95V12.3303H209.878V12.9106H209.805C209.769 13.092 209.732 13.237 209.732 13.4184H204.184C204.22 13.0194 204.365 12.7656 204.401 12.2578Z" fill="#488BBC"/>
<path d="M130.235 14.5431H136.364C136.437 14.6156 136.473 14.7244 136.546 14.797H136.727C136.763 14.8695 136.799 14.9058 136.799 14.9783H136.981V15.0508H137.162V15.1234H137.489V15.1959H137.924V15.2684H138.504V15.1959H139.012V15.1234C139.193 15.0508 139.338 15.0146 139.519 14.942V14.8695H139.701C139.773 14.797 139.81 14.6882 139.882 14.6156H140.063V14.5431H146.7V15.7399H130.67C130.525 15.2322 130.271 15.0508 130.235 14.5431Z" fill="#488BBC"/>
<path d="M148.078 14.5431H153.373V15.7399H148.078V14.5431Z" fill="#488BBC"/>
<path d="M163.02 14.5431V14.7244C163.093 14.797 163.202 14.8332 163.274 14.9058V15.0871L163.456 15.2684H163.637V15.341C163.782 15.4498 163.891 15.5586 164.145 15.5948V15.6674H157.834C157.798 15.5948 157.762 15.486 157.762 15.4135H157.689V15.2322H157.617C157.544 15.0146 157.435 14.797 157.363 14.5431C159.212 14.5431 161.135 14.5431 163.02 14.5431Z" fill="#488BBC"/>
<path d="M173.248 15.6321H168.642C168.243 15.6321 167.155 15.7046 166.974 15.5596H167.155C167.445 15.342 167.699 15.1244 167.989 14.8705V14.6891H168.062C168.098 14.6166 168.134 14.5803 168.134 14.5078H173.828V14.5803C173.683 14.7254 173.756 14.7617 173.647 14.9067H173.574V15.0881C173.502 15.1244 173.465 15.1606 173.393 15.1606V15.342H173.32C173.32 15.487 173.284 15.5596 173.248 15.6321Z" fill="#488BBC"/>
<path d="M190.874 14.5431V15.6311H175.025C175.025 15.2322 174.916 14.8332 174.771 14.5431H180.973C181.263 15.0146 182.097 15.341 182.75 15.1234H183.257V15.0508H183.439V14.9783H183.693V14.9058H183.874V14.8332H184.055C184.128 14.7607 184.164 14.6519 184.237 14.5794C186.413 14.5431 188.661 14.5431 190.874 14.5431Z" fill="#488BBC"/>
<path d="M192.905 14.5431H199.288C199.614 15.1234 200.774 15.8487 201.717 15.5586H202.225V15.486C202.334 15.4498 202.443 15.4135 202.552 15.4135V15.341H202.733C202.805 15.2684 202.842 15.1596 202.914 15.0871C202.987 15.0508 203.096 15.0146 203.168 15.0146C203.277 14.8695 203.386 14.7244 203.495 14.5794H209.442V14.6519C209.261 15.0146 209.116 15.3772 208.935 15.7399H198.852C198.598 15.5223 197.656 15.6674 197.257 15.6674H192.905C192.905 15.2684 192.905 14.9058 192.905 14.5431Z" fill="#488BBC"/>
<path d="M158.668 16.7559H172.414V16.8284C172.196 17.0097 171.978 17.1548 171.725 17.3361C171.652 17.4087 171.616 17.5175 171.543 17.59H171.362C171.289 17.6988 171.181 17.8076 171.108 17.9164H159.865C159.793 17.8076 159.684 17.6988 159.611 17.59H159.43C159.285 17.4087 159.14 17.2636 158.995 17.0823H158.814C158.814 16.9735 158.741 16.8647 158.668 16.7559Z" fill="#488BBC"/>
<path d="M175.533 16.7559H185.76V16.8284C185.651 16.9009 185.542 17.0097 185.434 17.0823V17.2636C185.252 17.4449 185.035 17.59 184.853 17.7713C184.817 17.8439 184.781 17.8801 184.781 17.9527H176.403C176.294 17.7351 176.077 17.6625 175.968 17.5175C175.823 17.2636 175.678 17.0097 175.533 16.7559Z" fill="#488BBC"/>
<path d="M186.086 16.7559H190.874V17.9527H186.086V16.7559Z" fill="#488BBC"/>
<path d="M192.905 16.7559C198.018 16.7921 203.132 16.8284 208.246 16.8284V16.9009C208.028 17.046 207.992 17.2636 207.81 17.4812C207.665 17.59 207.52 17.6988 207.375 17.8076C207.339 17.8801 207.303 17.9164 207.303 17.9889H206.541C206.323 17.8076 204.945 17.9164 204.51 17.9164H198.961C198.744 17.5175 198.345 17.2636 198.2 16.8284H198.127V17.9164H192.832C192.905 17.5175 192.905 17.1548 192.905 16.7559Z" fill="#488BBC"/>
<path d="M131.396 16.8279H141.224V16.9004C140.535 17.2994 140.607 17.9159 139.447 17.9159C139.229 18.0972 137.996 17.9884 137.597 17.9884H132.484C132.411 17.9159 132.375 17.8071 132.302 17.7346H132.121C132.085 17.662 132.048 17.6258 132.048 17.5532C131.794 17.3356 131.577 17.1906 131.396 16.8279Z" fill="#488BBC"/>
<path d="M141.623 16.8279H146.592C146.555 17.1906 146.519 17.5532 146.519 17.9159H141.587C141.587 17.5532 141.587 17.1906 141.623 16.8279Z" fill="#488BBC"/>
<path d="M148.078 16.8279H153.373V17.9159H148.078V16.8279Z" fill="#488BBC"/>
<path d="M141.296 19.041H146.41C146.337 19.44 146.301 19.8389 146.229 20.2378H140.789C140.897 19.7664 141.188 19.5125 141.296 19.041Z" fill="#488BBC"/>
<path d="M162.186 19.0402H167.119C167.518 19.0402 168.678 18.9314 168.896 19.1127C168.424 19.149 167.953 19.3303 167.554 19.4391H166.865V19.5117H166.031V19.5842H165.124V19.5117H164.217V19.4391H163.528V19.3666H163.093V19.2941H162.767V19.2215C162.585 19.1853 162.368 19.149 162.186 19.149V19.0402Z" fill="#488BBC"/>
<path d="M178.035 19.041H182.895V19.1136H182.714C182.569 19.2586 182.242 19.4037 182.025 19.44H181.517V19.5125H180.828C180.247 19.7301 178.398 19.44 178.035 19.041Z" fill="#488BBC"/>
<path d="M192.904 19.041H198.199V20.2378H192.904V19.041Z" fill="#488BBC"/>
<path d="M200.702 19.041H205.489V19.1136H205.308V19.1861C205.127 19.2224 204.909 19.2586 204.728 19.2586V19.3312H204.401V19.4037H204.075C203.168 19.6938 202.262 19.5125 201.464 19.2224C201.101 19.1498 200.92 19.2949 200.702 19.041Z" fill="#488BBC"/>
<path d="M135.421 19.1119C135.82 19.1119 137.235 19.0393 137.452 19.1844C137.017 19.2207 135.603 19.2932 135.421 19.1119Z" fill="#488BBC"/>
<path d="M131.722 21.3242H134.079V21.3968H134.406V21.4693H134.732V21.5418C135.095 21.5781 135.457 21.6144 135.82 21.6144V21.6869C136.219 21.7957 137.234 21.6869 137.488 21.6144C137.815 21.5781 138.141 21.5418 138.504 21.5418V21.4693H138.83V21.3968H139.084V21.3242H145.793C145.757 21.7957 145.467 22.0858 145.358 22.521H131.686C131.722 22.0858 131.722 21.6869 131.722 21.3242Z" fill="#488BBC"/>
<path d="M192.904 21.3242H198.199V22.521H192.904V21.3242Z" fill="#488BBC"/>
<path d="M131.649 23.5742H144.415V23.6468C144.307 23.7193 144.307 23.7918 144.234 23.8281H144.053C143.98 23.9006 143.944 24.0094 143.871 24.082H143.69C143.654 24.1545 143.617 24.1908 143.617 24.2633H131.541C131.577 24.0457 131.613 23.8281 131.649 23.5742Z" fill="#488BBC"/>
<path d="M131.577 24.5156H143.146V24.5882H142.965C142.675 24.9146 140.752 24.7695 140.1 24.7695H134.659C133.644 24.7695 132.447 24.842 131.541 24.697C131.577 24.6244 131.577 24.5882 131.577 24.5156Z" fill="#488BBC"/>
<path d="M36.0495 0V6.31047C37.3551 4.71472 38.7332 3.73551 41.1994 3.77177C44.1733 3.77177 46.2405 5.22246 46.8208 8.34142C47.5098 6.78194 48.344 5.80273 49.5771 5.00485C52.2608 3.3003 56.8667 3.22777 59.4054 5.29499C60.3847 6.09287 61.1463 7.39848 61.5815 8.74036V4.06191H66.3687V6.85447C66.9853 5.62139 67.5293 4.60592 68.7623 4.06191C69.3064 3.80804 69.9229 3.62671 70.9746 3.77177L70.6845 8.05129C68.581 8.01502 67.7106 8.48649 67.1666 10.191C66.9853 10.8076 66.8764 11.7505 66.8764 12.8748V19.0039H61.6177V13.1287C61.6177 13.1287 51.608 13.0924 51.608 13.1287C51.6443 13.4913 51.9344 14.1442 51.9707 14.253C53.0587 16.1751 56.5403 16.2114 58.934 15.486C59.5142 15.3047 60.0583 15.0146 60.6023 14.8332C60.6748 16.5378 60.6748 18.4237 60.6385 18.4237C59.9857 18.6775 59.1516 18.8951 58.5713 19.0402C53.095 20.1282 49.0331 18.6413 46.9658 14.9783C46.7845 16.2114 46.9296 19.0039 46.9296 19.0039H41.7071C41.7071 19.0039 41.7071 11.9681 41.7071 14.1804C41.7071 12.4759 41.8159 10.59 41.3082 9.39317C40.9455 8.55903 40.1114 7.97875 38.9146 8.12382C37.7903 8.26889 37.1375 8.77663 36.7023 9.61077V9.71957C36.6297 10.0097 36.4121 10.3724 36.3033 10.6988C36.0857 11.5329 36.0857 13.5639 36.0857 13.5639V19.0039H30.8633V13.1287C26.475 13.1649 25.4595 13.0924 20.9261 13.1287C21.1437 16.03 24.7341 16.2839 27.4542 15.7399C28.2883 15.5586 29.1587 15.1596 29.8841 14.8332C29.8841 14.8695 29.8841 18.5325 29.8478 18.4962C28.5422 18.9677 27.2728 19.4029 24.3715 19.4391C23.0296 19.4754 20.2733 19.149 18.3874 17.6258C17.4082 16.8279 16.6828 15.7399 16.2839 15.0871C15.7036 16.2839 15.0146 17.4082 14.0354 18.1698C11.6417 20.0194 8.59529 19.5117 7.25341 18.8589C5.58513 18.0247 5.07739 16.973 4.78725 16.5015V19.0039H0V0.0362671H5.25872V6.09287C5.65766 5.65766 6.4918 4.64218 7.97875 4.20698C10.6625 3.44537 12.6572 3.91684 14.253 5.18619C15.4498 6.1654 15.8124 7.07208 16.3202 7.97875C16.9367 6.92701 17.5895 5.91153 18.605 5.25872C20.0194 4.31578 21.869 3.80804 23.7187 3.80804C25.5683 3.80804 27.2366 4.13444 28.8686 5.51259C29.7753 6.2742 30.3193 7.47101 30.8633 8.63156V0.0362671H36.0495V0ZM54.2192 6.99954C53.3488 7.03581 52.6598 7.47101 52.2971 7.97875C51.8619 8.52276 51.5355 9.28437 51.5718 10.0822H57.3382C57.3382 8.9217 56.903 7.90622 56.1777 7.43475C55.6337 7.14461 54.7995 6.99954 54.2192 6.99954ZM23.3197 7.07208C22.1954 7.18088 21.3976 7.97875 21.0712 8.88543C20.9261 9.2481 20.8536 9.61077 20.8536 10.1185C23.1021 10.1548 24.7704 10.1185 26.5475 10.1185C26.5475 9.6833 26.475 9.39317 26.4024 9.06676C26.2211 8.34142 25.9309 7.94249 25.4232 7.57982C24.9155 7.21714 24.2264 6.99954 23.3197 7.07208ZM8.05129 7.79742C3.95311 8.23262 4.46085 15.885 8.59529 15.486C12.6209 15.0871 12.5121 7.32595 8.05129 7.79742Z" fill="white"/>
<path d="M121.676 3.58978C121.676 3.58978 123.779 3.48098 124.94 4.20632C127.333 5.657 127.805 7.10768 127.877 9.86398V18.967C127.877 18.967 122.691 19.0033 122.619 18.967V12.9467C122.619 11.7861 122.691 10.5531 122.401 9.64638C121.785 7.65169 120.153 7.68796 118.992 8.08689C117.433 8.6309 117.034 10.408 116.997 12.5477V18.967H107.169C106.407 18.0966 106.407 17.2987 106.335 16.6097C105.682 17.4801 104.993 18.4955 103.977 19.0033C103.107 19.4385 102.672 19.5836 101.366 19.6561C99.9518 19.6924 97.2681 18.9307 96.4702 17.2987V18.967H91.2115V12.0763C91.2115 11.1696 91.2478 10.2629 91.0301 9.53758C90.8488 8.8485 90.4861 8.26823 89.7971 8.08689C88.5277 7.72422 87.4034 8.3045 86.932 9.53758C86.5693 10.5893 86.4968 12.1125 86.4968 13.5632V18.967H81.7095V10.8795C81.7095 10.0453 81.5644 9.61011 81.3831 9.21117C81.0204 8.37703 80.15 7.79676 78.8807 8.08689C78.1916 8.23196 77.6476 8.70343 77.3212 9.24744C77.1761 9.50131 76.6321 10.5893 76.6321 12.3301V18.967H71.4097V4.06125H76.1607C76.1607 4.06125 76.0881 5.9834 76.1607 6.70875C76.6321 5.94714 77.2487 5.2218 77.974 4.75032C79.6423 3.66231 82.6162 3.22711 84.5021 4.46019C85.2274 4.93166 85.7352 5.80207 86.0978 6.56368C86.6056 5.72954 87.2946 4.89539 88.1651 4.38765C90.5224 3.08204 94.4393 3.62605 95.5998 5.69327C96.0713 6.56368 96.3614 7.79676 96.3977 8.77597C96.3977 8.81224 96.4339 12.5115 96.4339 12.4752C98.2473 10.2267 100.641 10.0453 101.656 9.90025C102.345 9.82771 103.325 9.93651 103.869 9.90025C104.558 9.86398 105.174 9.68264 106.008 9.61011C106.008 8.26823 105.283 7.57916 104.268 7.28902C103.361 6.99888 100.496 6.81755 97.7758 8.23196C97.8121 8.23196 97.667 4.75032 97.667 4.75032C99.3353 4.13378 102.853 3.00951 106.879 4.09752C109.236 4.75032 110.832 6.81755 110.868 9.13864C110.905 11.4597 110.832 14.4336 110.832 15.304C110.832 16.4283 111.013 17.4438 111.412 18.1691C111.485 18.2779 111.63 18.5318 111.666 18.5318V4.06125H116.49C116.49 4.06125 116.453 5.7658 116.49 6.59994C117.65 4.82286 119.101 3.80738 121.676 3.58978ZM106.117 12.2576C105.356 12.3664 105.573 12.5115 104.304 12.6203C102.998 12.7291 102.164 12.6203 101.366 13.2368C100.532 13.8896 100.568 15.2315 101.475 15.7755C103.651 17.0449 105.827 15.0502 106.081 12.9829C106.117 12.6928 106.117 12.2576 106.117 12.2576Z" fill="white"/>
</g>
<defs>
<clipPath id="clip0_20_105">
<rect width="209.95" height="24.803" fill="white"/>
</clipPath>
</defs>
</svg>
